<svg id="svg" version="1.1" xmlns="http://www.w3.org/2000/svg" xmlns:xlink="http://www.w3.org/1999/xlink" width="400" height="302.7027027027027" viewBox="0, 0, 400,302.7027027027027"><g id="svgg"><path id="path0" d="M185.929 1.893 C 185.941 4.200,186.341 4.794,188.080 5.089 L 189.402 5.313 189.496 6.965 C 189.614 9.044,189.670 9.074,193.414 9.079 L 196.518 9.084 196.518 10.425 C 196.518 12.190,197.071 12.718,198.922 12.718 L 200.374 12.718 200.540 13.952 C 200.790 15.816,201.996 16.351,205.947 16.351 L 207.419 16.351 207.423 17.638 C 207.430 19.416,207.648 19.632,209.545 19.740 L 211.204 19.833 211.296 21.096 C 211.401 22.543,212.138 23.209,213.808 23.369 C 214.772 23.461,214.843 23.544,214.930 24.678 C 215.074 26.553,215.785 26.934,219.152 26.943 L 221.953 26.949 221.953 28.766 L 221.953 30.583 223.770 30.583 L 225.587 30.583 225.587 32.400 L 225.587 34.217 227.252 34.217 L 228.917 34.217 228.917 35.688 C 228.917 39.639,229.452 40.845,231.316 41.095 C 232.460 41.248,232.551 41.330,232.555 42.205 C 232.564 44.288,233.395 45.117,235.473 45.117 C 236.103 45.117,236.185 45.258,236.185 46.348 C 236.185 48.317,236.569 48.751,238.315 48.751 L 239.818 48.751 239.818 50.224 C 239.818 54.003,240.471 55.395,242.392 55.715 C 243.179 55.846,243.312 56.009,243.382 56.927 C 243.565 59.298,243.608 59.349,245.426 59.349 L 247.086 59.349 247.086 62.619 C 247.086 66.399,247.204 66.616,249.266 66.616 L 250.719 66.616 250.719 69.886 C 250.719 73.660,250.840 73.883,252.879 73.883 L 254.312 73.883 254.408 78.865 C 254.516 84.437,254.529 84.473,256.597 84.706 L 257.986 84.863 257.986 90.123 L 257.986 95.382 259.803 95.382 L 261.620 95.382 261.620 107.916 C 261.620 121.871,261.445 120.818,263.764 120.818 L 264.951 120.818 264.951 126.380 L 264.951 131.941 263.716 132.107 C 261.560 132.396,261.640 131.821,261.630 147.086 L 261.620 160.787 260.167 160.787 C 257.951 160.787,257.986 160.666,257.986 168.276 C 257.986 173.421,257.896 175.066,257.608 175.156 C 257.400 175.221,256.732 175.357,256.123 175.458 C 254.605 175.709,254.577 175.834,254.422 183.119 L 254.285 189.553 252.686 189.553 C 250.664 189.553,250.719 189.391,250.719 195.331 L 250.719 200.151 249.086 200.151 C 247.085 200.151,247.086 200.151,247.086 204.225 L 247.086 207.340 245.697 207.496 C 243.743 207.717,243.623 207.936,243.452 211.590 L 243.301 214.823 241.972 215.048 C 240.112 215.364,239.818 216.333,239.818 222.146 L 239.818 225.587 238.480 225.587 C 236.154 225.587,236.185 225.536,236.185 229.389 L 236.185 232.824 234.444 232.914 L 232.702 233.005 232.617 236.412 L 232.531 239.818 231.088 239.818 C 229.249 239.818,228.917 240.175,228.917 242.150 C 228.917 243.737,228.907 243.755,227.995 243.755 C 226.201 243.755,225.587 244.833,225.587 247.980 L 225.587 250.719 224.723 250.719 C 224.249 250.719,223.431 250.869,222.907 251.052 L 221.953 251.384 221.953 254.685 L 221.953 257.986 220.615 257.986 C 218.288 257.986,218.319 257.934,218.319 261.804 L 218.319 265.254 216.503 265.254 L 214.686 265.254 214.686 267.070 L 214.686 268.887 213.190 268.887 C 211.306 268.887,211.268 268.957,211.037 272.822 L 210.846 276.003 210.798 272.333 L 210.749 268.663 212.138 268.507 C 214.318 268.261,214.222 268.758,214.319 257.230 L 214.406 246.814 215.972 246.722 C 217.349 246.642,217.563 246.540,217.747 245.874 C 217.862 245.458,217.956 225.700,217.956 201.968 C 217.956 178.236,217.862 158.478,217.747 158.062 C 217.563 157.397,217.349 157.294,215.974 157.214 L 214.409 157.123 214.321 148.523 C 214.222 138.988,214.295 139.307,212.138 139.063 L 210.749 138.907 210.749 134.082 C 210.749 128.314,210.668 128.085,208.619 128.085 L 207.116 128.085 207.116 122.786 L 207.116 117.487 205.299 117.487 L 203.482 117.487 203.475 112.869 C 203.468 107.507,203.273 106.988,201.211 106.830 L 200.000 106.737 199.915 103.357 L 199.829 99.977 198.885 99.648 C 198.366 99.467,197.621 99.319,197.230 99.319 C 196.566 99.319,196.517 99.201,196.511 97.578 C 196.496 94.011,195.623 92.354,193.759 92.354 C 192.904 92.354,192.884 92.317,192.884 90.749 C 192.884 88.772,192.553 88.418,190.704 88.418 L 189.251 88.418 189.251 85.521 C 189.251 81.815,189.062 81.453,187.135 81.453 L 185.647 81.453 185.556 79.712 L 185.466 77.971 183.724 77.880 L 181.983 77.790 181.965 76.064 C 181.922 71.917,181.585 71.116,179.786 70.875 L 178.509 70.704 178.272 69.058 C 177.986 67.070,178.153 67.242,176.306 67.023 L 174.786 66.843 174.643 65.360 C 174.468 63.534,174.468 63.534,172.603 63.354 L 171.083 63.208 171.083 61.744 C 171.083 60.040,170.637 59.652,168.680 59.652 L 167.449 59.652 167.449 58.148 C 167.449 56.403,167.015 56.018,165.046 56.018 L 163.815 56.018 163.815 54.515 C 163.815 52.769,163.382 52.385,161.413 52.385 C 160.257 52.385,160.182 52.331,160.182 51.510 C 160.182 49.640,158.528 48.795,154.807 48.764 L 153.217 48.751 153.217 47.086 L 153.217 45.420 151.400 45.420 L 149.584 45.420 149.579 43.982 C 149.573 42.042,149.381 41.838,147.465 41.729 L 145.813 41.635 145.588 40.313 C 145.269 38.434,144.774 38.174,141.484 38.163 L 138.683 38.153 138.683 36.699 C 138.683 34.878,138.324 34.519,136.503 34.519 C 135.066 34.519,135.049 34.508,135.042 33.535 C 135.029 31.628,134.368 31.224,130.886 30.997 L 127.782 30.795 127.772 29.856 C 127.753 28.017,127.007 27.616,122.992 27.290 C 120.796 27.111,120.661 27.059,120.578 26.344 C 120.330 24.214,118.998 23.618,114.489 23.618 C 110.858 23.618,110.220 23.940,110.220 25.768 L 110.220 27.252 108.587 27.252 C 106.736 27.252,106.586 27.424,106.586 29.548 L 106.586 30.886 104.845 30.904 C 100.697 30.947,99.987 31.240,99.680 33.039 L 99.454 34.368 97.852 34.564 C 95.894 34.805,95.934 34.765,95.754 36.632 L 95.608 38.153 94.143 38.153 C 92.443 38.153,92.051 38.599,92.051 40.540 L 92.051 41.756 90.310 41.847 L 88.569 41.938 88.478 43.679 L 88.388 45.420 86.770 45.420 C 84.959 45.420,84.784 45.609,84.784 47.565 C 84.784 48.723,84.759 48.751,83.705 48.751 C 81.893 48.751,81.453 49.167,81.453 50.881 L 81.453 52.385 80.149 52.385 C 78.345 52.385,77.864 52.840,77.757 54.649 L 77.668 56.156 76.346 56.380 C 74.467 56.699,74.207 57.194,74.196 60.484 L 74.186 63.285 72.553 63.285 C 70.709 63.285,70.553 63.461,70.553 65.539 L 70.553 66.835 68.998 67.019 C 66.986 67.257,67.096 67.047,66.965 70.877 L 66.852 74.186 65.432 74.186 C 63.408 74.186,63.285 74.414,63.285 78.168 L 63.285 81.423 61.544 81.514 L 59.803 81.605 59.718 85.011 L 59.632 88.418 58.146 88.418 C 56.248 88.418,56.200 88.510,56.018 92.497 L 55.867 95.819 54.650 96.059 C 52.665 96.450,52.565 96.804,52.437 103.936 L 52.323 110.220 51.123 110.220 C 48.601 110.220,48.751 109.521,48.751 121.282 L 48.751 131.718 47.565 131.718 C 45.230 131.718,45.420 130.285,45.420 147.918 C 45.420 165.540,45.234 164.118,47.545 164.118 L 48.712 164.118 48.807 175.700 C 48.916 188.951,48.915 188.948,51.208 188.948 L 52.385 188.948 52.385 193.944 C 52.385 199.711,52.556 200.151,54.807 200.151 L 56.018 200.151 56.018 204.497 C 56.018 210.179,56.212 210.749,58.140 210.749 L 59.597 210.749 59.700 213.914 C 59.817 217.493,59.938 217.718,61.864 217.935 L 63.221 218.088 63.333 221.362 C 63.463 225.152,63.353 224.946,65.364 225.184 L 66.919 225.368 66.937 227.067 C 66.981 231.171,67.278 231.883,69.072 232.189 L 70.401 232.416 70.598 234.017 C 70.838 235.976,70.799 235.936,72.666 236.116 L 74.186 236.262 74.186 238.040 L 74.186 239.818 76.003 239.818 L 77.820 239.818 77.820 242.557 C 77.820 245.795,78.418 246.783,80.380 246.783 C 81.398 246.783,81.453 246.835,81.453 247.809 C 81.453 249.203,82.293 250.148,83.739 250.383 C 84.833 250.561,84.942 250.667,85.114 251.728 C 85.351 253.185,85.954 253.787,87.413 254.022 C 88.411 254.183,88.583 254.329,88.670 255.086 C 88.835 256.530,89.550 257.336,90.758 257.440 C 91.945 257.541,92.234 257.891,92.498 259.547 C 92.712 260.896,92.933 260.989,96.484 261.222 L 99.291 261.407 99.381 263.103 L 99.470 264.799 101.211 264.890 L 102.952 264.981 102.952 266.419 C 102.952 268.218,103.315 268.584,105.093 268.584 L 106.507 268.584 106.664 269.973 C 106.885 271.934,107.101 272.053,110.674 272.169 L 113.825 272.272 113.915 273.986 L 114.005 275.700 115.746 275.791 C 117.435 275.879,117.487 275.907,117.487 276.742 C 117.487 278.622,119.148 279.443,123.013 279.472 C 124.728 279.485,124.754 279.498,124.754 280.360 C 124.754 282.245,126.407 283.097,130.089 283.112 L 131.941 283.119 132.107 284.354 C 132.368 286.297,132.742 286.429,138.002 286.440 L 142.619 286.450 142.619 287.787 C 142.619 290.191,142.356 290.083,148.253 290.083 L 153.520 290.083 153.520 291.716 C 153.520 293.813,153.156 293.717,161.115 293.717 L 167.752 293.717 167.752 295.194 C 167.752 297.547,165.219 297.381,199.834 297.286 L 231.072 297.199 231.645 296.442 C 231.960 296.026,232.259 295.276,232.309 294.777 L 232.400 293.868 237.699 293.699 C 243.929 293.499,243.149 293.778,243.149 291.749 L 243.149 290.083 248.279 290.083 C 253.921 290.083,253.694 290.168,253.954 287.971 L 254.134 286.450 257.542 286.450 C 261.332 286.450,261.317 286.458,261.317 284.305 L 261.317 283.119 264.475 283.119 C 268.185 283.119,268.584 282.896,268.584 280.826 L 268.584 279.485 271.234 279.481 C 274.736 279.475,275.369 279.150,275.489 277.297 L 275.581 275.881 277.306 275.791 L 279.031 275.700 279.121 273.986 L 279.211 272.272 282.362 272.169 C 285.934 272.053,286.151 271.934,286.372 269.973 L 286.528 268.584 287.942 268.584 C 289.723 268.584,290.083 268.218,290.083 266.404 L 290.083 264.951 291.421 264.951 C 293.542 264.951,293.717 264.799,293.717 262.965 L 293.717 261.347 295.458 261.257 L 297.199 261.166 297.289 259.439 L 297.380 257.713 299.106 257.623 L 300.833 257.532 300.924 255.791 L 301.014 254.050 302.816 254.050 L 304.618 254.050 304.618 252.233 L 304.618 250.416 306.435 250.416 L 308.251 250.416 308.251 248.600 L 308.251 246.783 309.917 246.783 L 311.582 246.783 311.582 245.117 L 311.582 243.452 312.920 243.452 C 315.035 243.452,315.216 243.298,315.216 241.491 L 315.216 239.897 316.605 239.741 C 318.551 239.521,318.668 239.309,318.800 235.737 L 318.917 232.579 320.624 232.489 L 322.332 232.400 322.421 230.696 L 322.511 228.992 324.018 228.847 C 326.004 228.656,325.950 228.759,326.068 224.957 L 326.170 221.650 327.582 221.646 C 329.493 221.639,329.699 221.443,329.808 219.524 L 329.902 217.865 331.183 217.694 C 333.050 217.445,333.384 216.385,333.384 210.708 L 333.384 207.419 334.837 207.419 C 336.896 207.419,337.017 207.198,337.017 203.462 L 337.017 200.231 338.301 200.059 C 340.488 199.766,340.651 199.327,340.651 193.759 L 340.651 188.948 341.827 188.948 C 344.119 188.948,344.120 188.947,344.228 175.738 L 344.323 164.193 345.527 164.031 C 347.715 163.738,347.615 164.259,347.615 153.061 C 347.615 141.848,347.774 142.619,345.471 142.619 L 344.285 142.619 344.285 130.639 C 344.285 117.072,344.352 117.487,342.154 117.487 L 340.651 117.487 340.647 111.204 C 340.642 103.243,340.539 102.952,337.729 102.952 C 337.023 102.952,337.017 102.923,337.017 99.485 C 337.017 93.812,336.541 92.553,334.292 92.291 C 333.555 92.205,333.531 92.125,333.360 89.175 C 333.131 85.206,333.069 85.087,331.232 85.087 L 329.750 85.087 329.750 82.407 C 329.750 78.445,329.457 77.820,327.601 77.820 L 326.117 77.820 326.099 76.079 C 326.055 71.914,325.721 71.116,323.916 70.875 L 322.634 70.704 322.539 69.198 C 322.416 67.246,322.105 66.919,320.372 66.919 L 318.941 66.919 318.755 64.098 C 318.521 60.536,318.429 60.314,317.079 60.091 C 315.221 59.783,315.216 59.777,315.216 58.028 C 315.216 56.167,315.046 56.018,312.920 56.018 L 311.582 56.018 311.582 54.201 L 311.582 52.385 309.917 52.385 L 308.251 52.385 308.238 50.795 C 308.207 47.053,307.578 45.764,305.627 45.447 C 304.573 45.276,304.459 45.162,304.288 44.108 C 304.051 42.653,303.449 42.050,301.993 41.813 C 300.944 41.643,300.825 41.525,300.658 40.496 C 300.413 38.992,299.644 38.206,298.309 38.094 C 297.270 38.006,297.201 37.932,296.987 36.673 C 296.711 35.044,296.719 35.052,295.182 34.842 C 293.821 34.655,293.537 34.331,293.271 32.656 C 293.056 31.306,292.837 31.214,289.271 30.980 L 286.450 30.794 286.450 29.502 C 286.450 27.428,286.293 27.252,284.449 27.252 L 282.816 27.252 282.816 25.799 C 282.816 23.977,282.457 23.618,280.636 23.618 C 279.200 23.618,279.182 23.607,279.173 22.634 C 279.155 20.779,277.523 19.985,273.731 19.985 L 272.298 19.985 272.130 18.732 C 271.866 16.767,271.425 16.518,268.005 16.400 L 265.023 16.297 264.855 15.040 C 264.590 13.067,263.922 12.718,260.415 12.718 L 257.461 12.718 257.291 11.455 C 257.055 9.693,256.668 9.559,251.325 9.387 L 246.631 9.235 246.538 8.024 C 246.373 5.867,246.036 5.768,238.874 5.760 L 232.630 5.753 232.476 4.391 C 232.204 1.975,233.040 2.120,219.342 2.120 L 207.116 2.120 207.116 1.060 L 207.116 0.000 196.518 0.000 L 185.920 0.000 185.929 1.893 " stroke="none" fill="#3c3c3c" fill-rule="evenodd"></path><path id="path1" d="" stroke="none" fill="#403c3c" fill-rule="evenodd"></path><path id="path2" d="" stroke="none" fill="#403c3c" fill-rule="evenodd"></path><path id="path3" d="" stroke="none" fill="#403c3c" fill-rule="evenodd"></path><path id="path4" d="" stroke="none" fill="#403c3c" fill-rule="evenodd"></path></g></svg>